Oxygen.ufo
<glyph name="percent" format="1">
  <advance width="1877"/>
  <unicode hex="0025"/>
  <outline>
    <contour>
      <point x="443" y="1403" type="curve" smooth="yes"/>
      <point x="293" y="1403"/>
      <point x="217" y="1267"/>
      <point x="217" y="1126" type="curve" smooth="yes"/>
      <point x="217" y="980"/>
      <point x="295" y="850"/>
      <point x="443" y="850" type="curve" smooth="yes"/>
      <point x="593" y="850"/>
      <point x="669" y="985"/>
      <point x="669" y="1126" type="curve" smooth="yes"/>
      <point x="669" y="1272"/>
      <point x="591" y="1403"/>
    </contour>
    <contour>
      <point x="443" y="1511" type="curve" smooth="yes"/>
      <point x="675" y="1511"/>
      <point x="796" y="1347"/>
      <point x="796" y="1126" type="curve" smooth="yes"/>
      <point x="796" y="910"/>
      <point x="672" y="742"/>
      <point x="443" y="742" type="curve" smooth="yes"/>
      <point x="212" y="742"/>
      <point x="91" y="910"/>
      <point x="91" y="1126" type="curve" smooth="yes"/>
      <point x="91" y="1344"/>
      <point x="215" y="1511"/>
    </contour>
    <contour>
      <point x="403" y="0" type="line" smooth="no"/>
      <point x="1331" y="1496" type="line" smooth="no"/>
      <point x="1475" y="1496" type="line" smooth="no"/>
      <point x="544" y="0" type="line" smooth="no"/>
    </contour>
    <contour>
      <point x="1433" y="646" type="curve" smooth="yes"/>
      <point x="1283" y="646"/>
      <point x="1207" y="510"/>
      <point x="1207" y="369" type="curve" smooth="yes"/>
      <point x="1207" y="223"/>
      <point x="1285" y="93"/>
      <point x="1433" y="93" type="curve" smooth="yes"/>
      <point x="1583" y="93"/>
      <point x="1659" y="228"/>
      <point x="1659" y="369" type="curve" smooth="yes"/>
      <point x="1659" y="515"/>
      <point x="1581" y="646"/>
    </contour>
    <contour>
      <point x="1433" y="754" type="curve" smooth="yes"/>
      <point x="1665" y="754"/>
      <point x="1786" y="590"/>
      <point x="1786" y="369" type="curve" smooth="yes"/>
      <point x="1786" y="153"/>
      <point x="1662" y="-15"/>
      <point x="1433" y="-15" type="curve" smooth="yes"/>
      <point x="1202" y="-15"/>
      <point x="1081" y="153"/>
      <point x="1081" y="369" type="curve" smooth="yes"/>
      <point x="1081" y="587"/>
      <point x="1205" y="754"/>
    </contour>
  </outline>
</glyph>
<glyph name="parenleft" format="1">
  <advance width="612"/>
  <unicode hex="0028"/>
  <outline>
    <contour>
      <point x="125" y="636" type="curve" smooth="yes"/>
      <point x="125" y="954"/>
      <point x="221" y="1241"/>
      <point x="370" y="1510" type="curve" smooth="no"/>
      <point x="518" y="1510" type="line" smooth="no"/>
      <point x="373" y="1243"/>
      <point x="290" y="951"/>
      <point x="290" y="642" type="curve" smooth="yes"/>
      <point x="290" y="357"/>
      <point x="379" y="33"/>
      <point x="520" y="-218" type="curve" smooth="no"/>
      <point x="373" y="-218" type="line" smooth="no"/>
      <point x="232" y="22"/>
      <point x="125" y="330"/>
    </contour>
  </outline>
</glyph>
<glyph name="three" format="1">
  <advance width="1103"/>
  <unicode hex="0033"/>
  <outline>
    <contour>
      <point x="824" y="412" type="curve" smooth="yes"/>
      <point x="824" y="681"/>
      <point x="602" y="722"/>
      <point x="323" y="722" type="curve" smooth="no"/>
      <point x="323" y="871" type="line" smooth="no"/>
      <point x="553" y="871"/>
      <point x="771" y="897"/>
      <point x="771" y="1133" type="curve" smooth="yes"/>
      <point x="771" y="1298"/>
      <point x="673" y="1373"/>
      <point x="496" y="1373" type="curve" smooth="yes"/>
      <point x="359" y="1373"/>
      <point x="240" y="1329"/>
      <point x="161" y="1266" type="curve" smooth="no"/>
      <point x="105" y="1412" type="line" smooth="no"/>
      <point x="196" y="1481"/>
      <point x="327" y="1525"/>
      <point x="534" y="1525" type="curve" smooth="yes"/>
      <point x="755" y="1525"/>
      <point x="963" y="1395"/>
      <point x="963" y="1156" type="curve" smooth="yes"/>
      <point x="963" y="964"/>
      <point x="862" y="847"/>
      <point x="700" y="797" type="curve" smooth="no"/>
      <point x="883" y="757"/>
      <point x="999" y="620"/>
      <point x="999" y="410" type="curve" smooth="yes"/>
      <point x="999" y="143"/>
      <point x="786" y="-23"/>
      <point x="496" y="-23" type="curve" smooth="yes"/>
      <point x="302" y="-23"/>
      <point x="161" y="40"/>
      <point x="105" y="93" type="curve" smooth="no"/>
      <point x="161" y="237" type="line" smooth="no"/>
      <point x="236" y="178"/>
      <point x="343" y="129"/>
      <point x="494" y="129" type="curve" smooth="yes"/>
      <point x="690" y="129"/>
      <point x="824" y="230"/>
    </contour>
  </outline>
</glyph>
<glyph name="greater" format="1">
  <advance width="1182"/>
  <unicode hex="003e"/>
  <outline>
    <contour>
      <point x="126" y="230" type="line" smooth="no"/>
      <point x="891" y="598" type="line" smooth="no"/>
      <point x="130" y="997" type="line" smooth="no"/>
      <point x="130" y="1160" type="line" smooth="no"/>
      <point x="1086" y="640" type="line" smooth="no"/>
      <point x="1086" y="544" type="line" smooth="no"/>
      <point x="126" y="62" type="line" smooth="no"/>
    </contour>
  </outline>
</glyph>
<glyph name="question" format="1">
  <advance width="865"/>
  <unicode hex="003f"/>
  <outline>
    <contour>
      <point x="242" y="120" type="curve" smooth="yes"/>
      <point x="242" y="186"/>
      <point x="287" y="252"/>
      <point x="375" y="252" type="curve" smooth="yes"/>
      <point x="464" y="252"/>
      <point x="508" y="186"/>
      <point x="508" y="120" type="curve" smooth="yes"/>
      <point x="508" y="54"/>
      <point x="464" y="-12"/>
      <point x="375" y="-12" type="curve" smooth="yes"/>
      <point x="287" y="-12"/>
      <point x="242" y="54"/>
    </contour>
    <contour>
      <point x="404" y="435" type="curve" smooth="no"/>
      <point x="317" y="435" type="line" smooth="no"/>
      <point x="317" y="668"/>
      <point x="602" y="989"/>
      <point x="602" y="1186" type="curve" smooth="no"/>
      <point x="600" y="1318"/>
      <point x="510" y="1373"/>
      <point x="377" y="1373" type="curve" smooth="yes"/>
      <point x="257" y="1373"/>
      <point x="166" y="1322"/>
      <point x="118" y="1292" type="curve" smooth="no"/>
      <point x="73" y="1427" type="line" smooth="no"/>
      <point x="163" y="1498"/>
      <point x="293" y="1524"/>
      <point x="404" y="1524" type="curve" smooth="yes"/>
      <point x="614" y="1524"/>
      <point x="765" y="1408"/>
      <point x="765" y="1200" type="curve" smooth="yes"/>
      <point x="765" y="927"/>
      <point x="554" y="770"/>
    </contour>
  </outline>
</glyph>
<glyph name="R" format="1">
  <advance width="1339"/>
  <unicode hex="0052"/>
  <outline>
    <contour>
      <point x="324" y="1341" type="line" smooth="no"/>
      <point x="324" y="841" type="line" smooth="no"/>
      <point x="679" y="837" type="line" smooth="yes"/>
      <point x="950" y="834"/>
      <point x="1028" y="923"/>
      <point x="1028" y="1102" type="curve" smooth="yes"/>
      <point x="1028" y="1258"/>
      <point x="949" y="1341"/>
      <point x="720" y="1341" type="curve" smooth="yes"/>
    </contour>
    <contour>
      <point x="1272" y="0" type="line" smooth="no"/>
      <point x="1072" y="0" type="line" smooth="no"/>
      <point x="868" y="464" type="line" smooth="yes"/>
      <point x="829" y="552"/>
      <point x="793" y="638"/>
      <point x="762" y="689" type="curve" smooth="no"/>
      <point x="733" y="687"/>
      <point x="623" y="684"/>
      <point x="589" y="684" type="curve" smooth="yes"/>
      <point x="570" y="684"/>
      <point x="324" y="692"/>
      <point x="324" y="692" type="curve" smooth="no"/>
      <point x="324" y="0" type="line" smooth="no"/>
      <point x="147" y="0" type="line" smooth="no"/>
      <point x="147" y="1496" type="line" smooth="no"/>
      <point x="620" y="1496" type="line" smooth="yes"/>
      <point x="976" y="1496"/>
      <point x="1202" y="1442"/>
      <point x="1202" y="1105" type="curve" smooth="yes"/>
      <point x="1202" y="920"/>
      <point x="1113" y="776"/>
      <point x="920" y="724" type="curve" smooth="yes"/>
      <point x="917" y="723"/>
      <point x="995" y="598"/>
      <point x="1030" y="522" type="curve" smooth="yes"/>
    </contour>
  </outline>
</glyph>
<glyph name="V" format="1">
  <advance width="1265"/>
  <unicode hex="0056"/>
  <outline>
    <contour>
      <point x="632" y="194" type="line" smooth="no"/>
      <point x="632" y="194"/>
      <point x="930" y="1052"/>
      <point x="1089" y="1496" type="curve" smooth="no"/>
      <point x="1275" y="1496" type="line" smooth="no"/>
      <point x="728" y="0" type="line" smooth="no"/>
      <point x="536" y="0" type="line" smooth="no"/>
      <point x="-10" y="1496" type="line" smooth="no"/>
      <point x="181" y="1496" type="line" smooth="no"/>
    </contour>
  </outline>
</glyph>
<glyph name="backslash" format="1">
  <advance width="935"/>
  <unicode hex="005c"/>
  <outline>
    <contour>
      <point x="881" y="-120" type="line" smooth="no"/>
      <point x="735" y="-120" type="line" smooth="no"/>
      <point x="82" y="1466" type="line" smooth="no"/>
      <point x="230" y="1466" type="line" smooth="no"/>
    </contour>
  </outline>
</glyph>
<glyph name="grave" format="1">
  <advance width="643"/>
  <unicode hex="0060"/>
  <outline>
    <contour>
      <point x="408" y="1251" type="line" smooth="no"/>
      <point x="85" y="1638" type="line" smooth="no"/>
      <point x="335" y="1638" type="line" smooth="no"/>
      <point x="520" y="1251" type="line" smooth="no"/>
    </contour>
  </outline>
</glyph>
<glyph name="i" format="1">
  <advance width="476"/>
  <unicode hex="0069"/>
  <outline>
    <contour>
      <point x="327" y="1496" type="line" smooth="no"/>
      <point x="327" y="1298" type="line" smooth="no"/>
      <point x="159" y="1298" type="line" smooth="no"/>
      <point x="159" y="1496" type="line" smooth="no"/>
    </contour>
    <contour>
      <point x="327" y="1098" type="line" smooth="no"/>
      <point x="327" y="0" type="line" smooth="no"/>
      <point x="159" y="0" type="line" smooth="no"/>
      <point x="159" y="1098" type="line" smooth="no"/>
    </contour>
  </outline>
</glyph>
<glyph name="k" format="1">
  <advance width="1006"/>
  <unicode hex="006b"/>
  <outline>
    <contour>
      <point x="114" y="1490" type="line" smooth="no"/>
      <point x="282" y="1510" type="line" smooth="no"/>
      <point x="282" y="632" type="line" smooth="no"/>
      <point x="771" y="1098" type="line" smooth="no"/>
      <point x="998" y="1098" type="line" smooth="no"/>
      <point x="529" y="642" type="line" smooth="no"/>
      <point x="1031" y="0" type="line" smooth="no"/>
      <point x="816" y="0" type="line" smooth="no"/>
      <point x="401" y="563" type="line" smooth="no"/>
      <point x="282" y="461" type="line" smooth="no"/>
      <point x="282" y="0" type="line" smooth="no"/>
      <point x="114" y="0" type="line" smooth="no"/>
    </contour>
  </outline>
</glyph>
<glyph name="n" format="1">
  <advance width="1112"/>
  <unicode hex="006e"/>
  <outline>
    <contour>
      <point x="661" y="1124" type="curve" smooth="yes"/>
      <point x="902" y="1124"/>
      <point x="1007" y="965"/>
      <point x="1007" y="657" type="curve" smooth="yes"/>
      <point x="1007" y="0" type="line" smooth="no"/>
      <point x="839" y="0" type="line" smooth="no"/>
      <point x="839" y="551" type="line" smooth="yes"/>
      <point x="839" y="836"/>
      <point x="828" y="980"/>
      <point x="625" y="980" type="curve" smooth="yes"/>
      <point x="441" y="980"/>
      <point x="309" y="870"/>
      <point x="282" y="771" type="curve" smooth="no"/>
      <point x="282" y="0" type="line" smooth="no"/>
      <point x="114" y="0" type="line" smooth="no"/>
      <point x="114" y="831" type="line" smooth="no"/>
      <point x="111" y="1098" type="line" smooth="no"/>
      <point x="255" y="1098" type="line" smooth="no"/>
      <point x="271" y="956" type="line" smooth="no"/>
      <point x="356" y="1073"/>
      <point x="509" y="1124"/>
    </contour>
  </outline>
</glyph>
<glyph name="o" format="1">
  <advance width="1179"/>
  <unicode hex="006f"/>
  <outline>
    <contour>
      <point x="928" y="547" type="curve" smooth="yes"/>
      <point x="928" y="780"/>
      <point x="841" y="986"/>
      <point x="594" y="986" type="curve" smooth="yes"/>
      <point x="358" y="986"/>
      <point x="250" y="768"/>
      <point x="250" y="544" type="curve" smooth="yes"/>
      <point x="250" y="323"/>
      <point x="357" y="113"/>
      <point x="597" y="113" type="curve" smooth="yes"/>
      <point x="834" y="113"/>
      <point x="928" y="323"/>
    </contour>
    <contour>
      <point x="1102" y="549" type="curve" smooth="yes"/>
      <point x="1102" y="245"/>
      <point x="923" y="-25"/>
      <point x="594" y="-25" type="curve" smooth="yes"/>
      <point x="262" y="-25"/>
      <point x="77" y="232"/>
      <point x="77" y="547" type="curve" smooth="yes"/>
      <point x="77" y="861"/>
      <point x="265" y="1124"/>
      <point x="597" y="1124" type="curve" smooth="yes"/>
      <point x="933" y="1124"/>
      <point x="1102" y="865"/>
    </contour>
  </outline>
</glyph>
<glyph name="t" format="1">
  <advance width="691"/>
  <unicode hex="0074"/>
  <outline>
    <contour>
      <point x="358" y="980" type="line" smooth="no"/>
      <point x="358" y="367" type="line" smooth="yes"/>
      <point x="358" y="162"/>
      <point x="383" y="118"/>
      <point x="517" y="118" type="curve" smooth="yes"/>
      <point x="536" y="118"/>
      <point x="576" y="123"/>
      <point x="653" y="129" type="curve" smooth="no"/>
      <point x="668" y="-7" type="line" smooth="no"/>
      <point x="543" y="-18"/>
      <point x="512" y="-20"/>
      <point x="478" y="-20" type="curve" smooth="yes"/>
      <point x="211" y="-20"/>
      <point x="190" y="111"/>
      <point x="190" y="445" type="curve" smooth="yes"/>
      <point x="190" y="980" type="line" smooth="no"/>
      <point x="23" y="980" type="line" smooth="no"/>
      <point x="36" y="1098" type="line" smooth="no"/>
      <point x="190" y="1098" type="line" smooth="no"/>
      <point x="234" y="1453" type="line" smooth="no"/>
      <point x="358" y="1462" type="line" smooth="no"/>
      <point x="358" y="1098" type="line" smooth="no"/>
      <point x="649" y="1098" type="line" smooth="no"/>
      <point x="649" y="980" type="line" smooth="no"/>
    </contour>
  </outline>
</glyph>
<glyph name="u" format="1">
  <advance width="1098"/>
  <unicode hex="0075"/>
  <outline>
    <contour>
      <point x="108" y="378" type="curve" smooth="yes"/>
      <point x="108" y="1098" type="line" smooth="no"/>
      <point x="276" y="1098" type="line" smooth="no"/>
      <point x="276" y="376" type="line" smooth="yes"/>
      <point x="276" y="171"/>
      <point x="362" y="113"/>
      <point x="550" y="113" type="curve" smooth="yes"/>
      <point x="736" y="113"/>
      <point x="821" y="173"/>
      <point x="821" y="376" type="curve" smooth="yes"/>
      <point x="821" y="1098" type="line" smooth="no"/>
      <point x="989" y="1098" type="line" smooth="no"/>
      <point x="989" y="378" type="line" smooth="yes"/>
      <point x="989" y="83"/>
      <point x="832" y="-25"/>
      <point x="550" y="-25" type="curve" smooth="yes"/>
      <point x="268" y="-25"/>
      <point x="108" y="85"/>
    </contour>
  </outline>
</glyph>
<glyph name="w" format="1">
  <advance width="1619"/>
  <unicode hex="0077"/>
  <outline>
    <contour>
      <point x="15" y="1098" type="line" smooth="no"/>
      <point x="188" y="1098" type="line" smooth="no"/>
      <point x="433" y="223" type="line" smooth="no"/>
      <point x="722" y="1098" type="line" smooth="no"/>
      <point x="919" y="1098" type="line" smooth="no"/>
      <point x="1199" y="227" type="line" smooth="no"/>
      <point x="1434" y="1098" type="line" smooth="no"/>
      <point x="1604" y="1098" type="line" smooth="no"/>
      <point x="1275" y="0" type="line" smooth="no"/>
      <point x="1109" y="0" type="line" smooth="no"/>
      <point x="818" y="928" type="line" smooth="no"/>
      <point x="511" y="0" type="line" smooth="no"/>
      <point x="342" y="0" type="line" smooth="no"/>
    </contour>
  </outline>
</glyph>
<glyph name="y" format="1">
  <advance width="1012"/>
  <unicode hex="0079"/>
  <outline>
    <contour>
      <point x="180" y="1098" type="line" smooth="no"/>
      <point x="526" y="207" type="line" smooth="no"/>
      <point x="613" y="470"/>
      <point x="815" y="1099"/>
      <point x="816" y="1098" type="curve" smooth="no"/>
      <point x="993" y="1098" type="line" smooth="no"/>
      <point x="593" y="-48" type="line" smooth="yes"/>
      <point x="501" y="-314"/>
      <point x="400" y="-502"/>
      <point x="89" y="-502" type="curve" smooth="yes"/>
      <point x="36" y="-502" type="line" smooth="no"/>
      <point x="17" y="-351" type="line" smooth="no"/>
      <point x="46" y="-351" type="line" smooth="yes"/>
      <point x="282" y="-351"/>
      <point x="316" y="-314"/>
      <point x="431" y="23" type="curve" smooth="no"/>
      <point x="4" y="1098" type="line" smooth="no"/>
    </contour>
  </outline>
</glyph>
<glyph name="sterling" format="1">
  <advance width="1127"/>
  <unicode hex="00a3"/>
  <outline>
    <contour>
      <point x="103" y="707" type="line" smooth="no"/>
      <point x="103" y="849" type="line" smooth="no"/>
      <point x="277" y="849" type="line" smooth="no"/>
      <point x="277" y="935" type="line" smooth="yes"/>
      <point x="277" y="1245"/>
      <point x="326" y="1525"/>
      <point x="716" y="1525" type="curve" smooth="yes"/>
      <point x="889" y="1525"/>
      <point x="1003" y="1446"/>
      <point x="1070" y="1349" type="curve" smooth="no"/>
      <point x="975" y="1242" type="line" smooth="no"/>
      <point x="903" y="1325"/>
      <point x="828" y="1373"/>
      <point x="716" y="1373" type="curve" smooth="yes"/>
      <point x="520" y="1373"/>
      <point x="453" y="1222"/>
      <point x="453" y="1008" type="curve" smooth="yes"/>
      <point x="453" y="849" type="line" smooth="no"/>
      <point x="851" y="849" type="line" smooth="no"/>
      <point x="851" y="707" type="line" smooth="no"/>
      <point x="453" y="707" type="line" smooth="no"/>
      <point x="453" y="530" type="line" smooth="yes"/>
      <point x="453" y="390"/>
      <point x="434" y="240"/>
      <point x="348" y="152" type="curve" smooth="no"/>
      <point x="380" y="156"/>
      <point x="405" y="162"/>
      <point x="437" y="162" type="curve" smooth="yes"/>
      <point x="1051" y="162" type="line" smooth="no"/>
      <point x="1039" y="0" type="line" smooth="no"/>
      <point x="135" y="0" type="line" smooth="no"/>
      <point x="113" y="137" type="line" smooth="no"/>
      <point x="249" y="209"/>
      <point x="277" y="311"/>
      <point x="277" y="467" type="curve" smooth="yes"/>
      <point x="277" y="707" type="line" smooth="no"/>
    </contour>
  </outline>
</glyph>
<glyph name="macron" format="1">
  <advance width="1062"/>
  <unicode hex="00af"/>
  <outline>
    <contour>
      <point x="933" y="1625" type="line" smooth="no"/>
      <point x="933" y="1486" type="line" smooth="no"/>
      <point x="133" y="1486" type="line" smooth="no"/>
      <point x="133" y="1625" type="line" smooth="no"/>
    </contour>
  </outline>
</glyph>
<glyph name="plusminus" format="1">
  <advance width="1234"/>
  <unicode hex="00b1"/>
  <outline>
    <contour>
      <point x="133" y="789" type="line" smooth="no"/>
      <point x="550" y="789" type="line" smooth="no"/>
      <point x="550" y="1193" type="line" smooth="no"/>
      <point x="683" y="1193" type="line" smooth="no"/>
      <point x="683" y="789" type="line" smooth="no"/>
      <point x="1108" y="789" type="line" smooth="no"/>
      <point x="1108" y="642" type="line" smooth="no"/>
      <point x="687" y="642" type="line" smooth="no"/>
      <point x="687" y="240" type="line" smooth="no"/>
      <point x="553" y="240" type="line" smooth="no"/>
      <point x="553" y="642" type="line" smooth="no"/>
      <point x="133" y="642" type="line" smooth="no"/>
    </contour>
    <contour>
      <point x="1111" y="0" type="line" smooth="no"/>
      <point x="133" y="0" type="line" smooth="no"/>
      <point x="133" y="148" type="line" smooth="no"/>
      <point x="1111" y="148" type="line" smooth="no"/>
    </contour>
  </outline>
</glyph>
<glyph name="paragraph" format="1">
  <advance width="1068"/>
  <unicode hex="00b6"/>
  <outline>
    <contour>
      <point x="518" y="-158" type="line" smooth="no"/>
      <point x="393" y="-158" type="line" smooth="no"/>
      <point x="393" y="957" type="line" smooth="no"/>
      <point x="235" y="960"/>
      <point x="57" y="1037"/>
      <point x="57" y="1258" type="curve" smooth="yes"/>
      <point x="57" y="1530"/>
      <point x="312" y="1561"/>
      <point x="561" y="1561" type="curve" smooth="yes"/>
      <point x="937" y="1561" type="line" smooth="no"/>
      <point x="927" y="1430" type="line" smooth="no"/>
      <point x="852" y="1430" type="line" smooth="no"/>
      <point x="852" y="-158" type="line" smooth="no"/>
      <point x="737" y="-158" type="line" smooth="no"/>
      <point x="737" y="1430" type="line" smooth="no"/>
      <point x="518" y="1430" type="line" smooth="no"/>
    </contour>
  </outline>
</glyph>
<glyph name="uni00B9" format="1">
  <advance width="613"/>
  <unicode hex="00b9"/>
  <outline>
    <contour>
      <point x="407" y="650" type="line" smooth="no"/>
      <point x="269" y="650" type="line" smooth="no"/>
      <point x="269" y="1369" type="line" smooth="no"/>
      <point x="230" y="1344"/>
      <point x="181" y="1317"/>
      <point x="136" y="1294" type="curve" smooth="no"/>
      <point x="106" y="1424" type="line" smooth="no"/>
      <point x="165" y="1455"/>
      <point x="245" y="1506"/>
      <point x="285" y="1538" type="curve" smooth="no"/>
      <point x="407" y="1538" type="line" smooth="no"/>
    </contour>
  </outline>
</glyph>
<glyph name="threequarters" format="1">
  <advance width="1649"/>
  <unicode hex="00be"/>
  <outline>
    <component base="uni00B3" xOffset="4"/>
    <component base="uni2074" xOffset="907" yOffset="-609"/>
    <contour>
      <point x="1342" y="1495" type="line" smooth="no"/>
      <point x="1476" y="1495" type="line" smooth="no"/>
      <point x="413" y="0" type="line" smooth="no"/>
      <point x="264" y="0" type="line" smooth="no"/>
    </contour>
  </outline>
</glyph>
<glyph name="Eth" format="1">
  <advance width="1522"/>
  <unicode hex="00d0"/>
  <outline>
    <contour>
      <point x="324" y="832" type="line" smooth="no"/>
      <point x="566" y="832" type="line" smooth="no"/>
      <point x="566" y="697" type="line" smooth="no"/>
      <point x="324" y="697" type="line" smooth="no"/>
      <point x="324" y="155" type="line" smooth="no"/>
      <point x="639" y="155" type="line" smooth="yes"/>
      <point x="1005" y="155"/>
      <point x="1223" y="347"/>
      <point x="1223" y="734" type="curve" smooth="yes"/>
      <point x="1223" y="1205"/>
      <point x="949" y="1341"/>
      <point x="540" y="1341" type="curve" smooth="yes"/>
      <point x="324" y="1341" type="line" smooth="no"/>
    </contour>
    <contour>
      <point x="29" y="697" type="line" smooth="no"/>
      <point x="29" y="832" type="line" smooth="no"/>
      <point x="147" y="832" type="line" smooth="no"/>
      <point x="147" y="1496" type="line" smooth="no"/>
      <point x="519" y="1496" type="line" smooth="yes"/>
      <point x="1036" y="1496"/>
      <point x="1412" y="1315"/>
      <point x="1412" y="738" type="curve" smooth="yes"/>
      <point x="1412" y="240"/>
      <point x="1093" y="0"/>
      <point x="621" y="0" type="curve" smooth="yes"/>
      <point x="147" y="0" type="line" smooth="no"/>
      <point x="147" y="697" type="line" smooth="no"/>
    </contour>
  </outline>
</glyph>
<glyph name="Oslash" format="1">
  <advance width="1657"/>
  <unicode hex="00d8"/>
  <outline>
    <contour>
      <point x="1558" y="746" type="curve" smooth="yes"/>
      <point x="1558" y="1077"/>
      <point x="1423" y="1332"/>
      <point x="1178" y="1451" type="curve" smooth="no"/>
      <point x="1280" y="1690" type="line" smooth="no"/>
      <point x="1190" y="1725" type="line" smooth="no"/>
      <point x="1089" y="1487" type="line" smooth="no"/>
      <point x="1011" y="1512"/>
      <point x="924" y="1525"/>
      <point x="829" y="1525" type="curve" smooth="yes"/>
      <point x="366" y="1525"/>
      <point x="99" y="1211"/>
      <point x="99" y="746" type="curve" smooth="yes"/>
      <point x="99" y="420"/>
      <point x="237" y="154"/>
      <point x="505" y="39" type="curve" smooth="no"/>
      <point x="407" y="-199" type="line" smooth="no"/>
      <point x="491" y="-231" type="line" smooth="no"/>
      <point x="591" y="8" type="line" smooth="no"/>
      <point x="662" y="-12"/>
      <point x="742" y="-23"/>
      <point x="829" y="-23" type="curve" smooth="yes"/>
      <point x="1308" y="-23"/>
      <point x="1558" y="308"/>
    </contour>
    <contour>
      <point x="829" y="129" type="curve" smooth="yes"/>
      <point x="763" y="129"/>
      <point x="703" y="137"/>
      <point x="650" y="153" type="curve" smooth="no"/>
      <point x="1117" y="1301" type="line" smooth="no"/>
      <point x="1285" y="1200"/>
      <point x="1369" y="1001"/>
      <point x="1369" y="746" type="curve" smooth="yes"/>
      <point x="1369" y="402"/>
      <point x="1205" y="129"/>
    </contour>
    <contour>
      <point x="829" y="1373" type="curve" smooth="yes"/>
      <point x="904" y="1373"/>
      <point x="971" y="1362"/>
      <point x="1031" y="1341" type="curve" smooth="no"/>
      <point x="565" y="187" type="line" smooth="no"/>
      <point x="375" y="285"/>
      <point x="288" y="497"/>
      <point x="288" y="746" type="curve" smooth="yes"/>
      <point x="288" y="1123"/>
      <point x="469" y="1373"/>
    </contour>
  </outline>
</glyph>
<glyph name="ae" format="1">
  <advance width="1657"/>
  <unicode hex="00e6"/>
  <outline>
    <contour>
      <point x="86" y="300" type="curve" smooth="yes"/>
      <point x="86" y="564"/>
      <point x="354" y="596"/>
      <point x="657" y="613" type="curve" smooth="yes"/>
      <point x="720" y="616" type="line" smooth="no"/>
      <point x="720" y="781" type="line" smooth="yes"/>
      <point x="720" y="914"/>
      <point x="671" y="976"/>
      <point x="530" y="976" type="curve" smooth="yes"/>
      <point x="393" y="976"/>
      <point x="257" y="938"/>
      <point x="174" y="894" type="curve" smooth="no"/>
      <point x="138" y="1032" type="line" smooth="no"/>
      <point x="218" y="1078"/>
      <point x="376" y="1124"/>
      <point x="526" y="1124" type="curve" smooth="yes"/>
      <point x="685" y="1124"/>
      <point x="813" y="1062"/>
      <point x="843" y="932" type="curve" smooth="no"/>
      <point x="916" y="1063"/>
      <point x="1053" y="1124"/>
      <point x="1198" y="1124" type="curve" smooth="yes"/>
      <point x="1471" y="1124"/>
      <point x="1572" y="909"/>
      <point x="1572" y="684" type="curve" smooth="yes"/>
      <point x="1572" y="588"/>
      <point x="1546" y="542"/>
      <point x="1385" y="534" type="curve" smooth="yes"/>
      <point x="888" y="509" type="line" smooth="no"/>
      <point x="904" y="275"/>
      <point x="987" y="119"/>
      <point x="1200" y="119" type="curve" smooth="yes"/>
      <point x="1329" y="119"/>
      <point x="1453" y="180"/>
      <point x="1523" y="229" type="curve" smooth="no"/>
      <point x="1575" y="108" type="line" smooth="no"/>
      <point x="1494" y="38"/>
      <point x="1365" y="-25"/>
      <point x="1189" y="-25" type="curve" smooth="yes"/>
      <point x="1045" y="-25"/>
      <point x="942" y="24"/>
      <point x="862" y="112" type="curve" smooth="no"/>
      <point x="744" y="39"/>
      <point x="566" y="-26"/>
      <point x="410" y="-26" type="curve" smooth="yes"/>
      <point x="236" y="-26"/>
      <point x="86" y="59"/>
    </contour>
    <contour>
      <point x="422" y="113" type="curve" smooth="yes"/>
      <point x="533" y="113"/>
      <point x="679" y="170"/>
      <point x="793" y="208" type="curve" smooth="no"/>
      <point x="748" y="290"/>
      <point x="723" y="386"/>
      <point x="717" y="499" type="curve" smooth="no"/>
      <point x="695" y="498"/>
      <point x="673" y="497"/>
      <point x="653" y="495" type="curve" smooth="yes"/>
      <point x="332" y="471"/>
      <point x="254" y="410"/>
      <point x="254" y="291" type="curve" smooth="yes"/>
      <point x="254" y="158"/>
      <point x="326" y="113"/>
    </contour>
    <contour>
      <point x="1195" y="984" type="curve" smooth="yes"/>
      <point x="994" y="984"/>
      <point x="905" y="821"/>
      <point x="894" y="615" type="curve" smooth="no"/>
      <point x="1410" y="644" type="line" smooth="no"/>
      <point x="1410" y="654" type="line" smooth="yes"/>
      <point x="1408" y="882"/>
      <point x="1342" y="984"/>
    </contour>
  </outline>
</glyph>
<glyph name="eth" format="1">
  <advance width="1184"/>
  <unicode hex="00f0"/>
  <outline>
    <contour>
      <point x="834" y="877" type="curve" smooth="no"/>
      <point x="788" y="964"/>
      <point x="703" y="1086"/>
      <point x="544" y="1247" type="curve" smooth="no"/>
      <point x="292" y="1143" type="line" smooth="no"/>
      <point x="230" y="1257" type="line" smooth="no"/>
      <point x="453" y="1344" type="line" smooth="no"/>
      <point x="288" y="1510" type="line" smooth="no"/>
      <point x="506" y="1510" type="line" smooth="no"/>
      <point x="605" y="1411" type="line" smooth="no"/>
      <point x="856" y="1512" type="line" smooth="no"/>
      <point x="917" y="1403" type="line" smooth="no"/>
      <point x="697" y="1312" type="line" smooth="no"/>
      <point x="844" y="1141"/>
      <point x="936" y="1014"/>
      <point x="1005" y="884" type="curve" smooth="no"/>
      <point x="1075" y="755"/>
      <point x="1107" y="633"/>
      <point x="1107" y="492" type="curve" smooth="yes"/>
      <point x="1107" y="199"/>
      <point x="933" y="-25"/>
      <point x="593" y="-25" type="curve" smooth="yes"/>
      <point x="261" y="-25"/>
      <point x="77" y="212"/>
      <point x="77" y="486" type="curve" smooth="yes"/>
      <point x="77" y="772"/>
      <point x="287" y="972"/>
      <point x="549" y="972" type="curve" smooth="yes"/>
      <point x="685" y="972"/>
      <point x="775" y="921"/>
    </contour>
    <contour>
      <point x="259" y="485" type="curve" smooth="yes"/>
      <point x="259" y="294"/>
      <point x="372" y="114"/>
      <point x="599" y="114" type="curve" smooth="yes"/>
      <point x="815" y="114"/>
      <point x="935" y="271"/>
      <point x="935" y="472" type="curve" smooth="yes"/>
      <point x="935" y="653"/>
      <point x="815" y="833"/>
      <point x="593" y="833" type="curve" smooth="yes"/>
      <point x="381" y="833"/>
      <point x="259" y="675"/>
    </contour>
  </outline>
</glyph>
<glyph name="thorn" format="1">
  <advance width="1205"/>
  <unicode hex="00fe"/>
  <outline>
    <contour>
      <point x="624" y="113" type="curve" smooth="yes"/>
      <point x="858" y="113"/>
      <point x="926" y="360"/>
      <point x="926" y="551" type="curve" smooth="yes"/>
      <point x="926" y="743"/>
      <point x="860" y="986"/>
      <point x="631" y="986" type="curve" smooth="yes"/>
      <point x="405" y="986"/>
      <point x="290" y="781"/>
      <point x="290" y="551" type="curve" smooth="yes"/>
      <point x="290" y="320"/>
      <point x="385" y="113"/>
    </contour>
    <contour>
      <point x="292" y="162" type="curve" smooth="no"/>
      <point x="292" y="-437" type="line" smooth="no"/>
      <point x="124" y="-459" type="line" smooth="no"/>
      <point x="124" y="1262" type="line" smooth="no"/>
      <point x="124" y="1496" type="line" smooth="no"/>
      <point x="292" y="1510" type="line" smooth="no"/>
      <point x="292" y="933" type="line" smooth="no"/>
      <point x="378" y="1060"/>
      <point x="494" y="1124"/>
      <point x="643" y="1124" type="curve" smooth="no"/>
      <point x="919" y="1122"/>
      <point x="1099" y="879"/>
      <point x="1099" y="560" type="curve" smooth="yes"/>
      <point x="1099" y="268"/>
      <point x="951" y="-25"/>
      <point x="643" y="-25" type="curve" smooth="yes"/>
      <point x="491" y="-25"/>
      <point x="367" y="34"/>
    </contour>
  </outline>
</glyph>
<glyph name="gcedilla" format="1">
  <advance width="1268"/>
  <unicode hex="0123"/>
  <outline>
    <component base="g"/>
    <contour>
      <point x="793" y="1749" type="line" smooth="no"/>
      <point x="683" y="1250" type="line" smooth="no"/>
      <point x="488" y="1250" type="line" smooth="no"/>
      <point x="653" y="1749" type="line" smooth="no"/>
    </contour>
  </outline>
</glyph>
<glyph name="kgreenlandic" format="1">
  <advance width="1104"/>
  <unicode hex="0138"/>
  <outline>
    <contour>
      <point x="823" y="0" type="line" smooth="no"/>
      <point x="293" y="506" type="line" smooth="no"/>
      <point x="293" y="0" type="line" smooth="no"/>
      <point x="147" y="0" type="line" smooth="no"/>
      <point x="147" y="1105" type="line" smooth="no"/>
      <point x="293" y="1105" type="line" smooth="no"/>
      <point x="293" y="600" type="line" smooth="no"/>
      <point x="776" y="1105" type="line" smooth="no"/>
      <point x="981" y="1105" type="line" smooth="no"/>
      <point x="448" y="551" type="line" smooth="no"/>
      <point x="649" y="368"/>
      <point x="844" y="183"/>
      <point x="1014" y="0" type="curve" smooth="no"/>
    </contour>
  </outline>
</glyph>
<glyph name="lslash" format="1">
  <advance width="589"/>
  <unicode hex="0142"/>
  <outline>
    <contour>
      <point x="487" y="985" type="line" smooth="no"/>
      <point x="487" y="839" type="line" smooth="no"/>
      <point x="311" y="703" type="line" smooth="no"/>
      <point x="311" y="431" type="line" smooth="yes"/>
      <point x="311" y="192"/>
      <point x="318" y="117"/>
      <point x="432" y="117" type="curve" smooth="yes"/>
      <point x="457" y="117"/>
      <point x="470" y="119"/>
      <point x="522" y="123" type="curve" smooth="no"/>
      <point x="533" y="-8" type="line" smooth="no"/>
      <point x="476" y="-18"/>
      <point x="436" y="-21"/>
      <point x="419" y="-21" type="curve" smooth="yes"/>
      <point x="149" y="-21"/>
      <point x="143" y="104"/>
      <point x="143" y="468" type="curve" smooth="yes"/>
      <point x="143" y="573" type="line" smooth="no"/>
      <point x="31" y="486" type="line" smooth="no"/>
      <point x="31" y="631" type="line" smooth="no"/>
      <point x="143" y="718" type="line" smooth="no"/>
      <point x="143" y="1490" type="line" smooth="no"/>
      <point x="311" y="1510" type="line" smooth="no"/>
      <point x="311" y="848" type="line" smooth="no"/>
    </contour>
  </outline>
</glyph>
<glyph name="endash" format="1">
  <advance width="1317"/>
  <unicode hex="2013"/>
  <outline>
    <contour>
      <point x="1186" y="675" type="line" smooth="no"/>
      <point x="1186" y="527" type="line" smooth="no"/>
      <point x="139" y="527" type="line" smooth="no"/>
      <point x="139" y="675" type="line" smooth="no"/>
    </contour>
  </outline>
</glyph>
<glyph name="quotedblright" format="1">
  <advance width="795"/>
  <unicode hex="201d"/>
  <outline>
    <contour>
      <point x="420" y="1102" type="line" smooth="no"/>
      <point x="511" y="1574" type="line" smooth="no"/>
      <point x="674" y="1574" type="line" smooth="no"/>
      <point x="537" y="1102" type="line" smooth="no"/>
    </contour>
    <contour>
      <point x="133" y="1102" type="line" smooth="no"/>
      <point x="226" y="1574" type="line" smooth="no"/>
      <point x="385" y="1574" type="line" smooth="no"/>
      <point x="250" y="1102" type="line" smooth="no"/>
    </contour>
  </outline>
</glyph>
<glyph name="dagger" format="1">
  <advance width="877"/>
  <unicode hex="2020"/>
  <outline>
    <contour>
      <point x="372" y="121" type="line" smooth="no"/>
      <point x="372" y="990" type="line" smooth="no"/>
      <point x="77" y="990" type="line" smooth="no"/>
      <point x="77" y="1098" type="line" smooth="no"/>
      <point x="372" y="1098" type="line" smooth="no"/>
      <point x="372" y="1495" type="line" smooth="no"/>
      <point x="502" y="1495" type="line" smooth="no"/>
      <point x="502" y="1098" type="line" smooth="no"/>
      <point x="800" y="1098" type="line" smooth="no"/>
      <point x="800" y="990" type="line" smooth="no"/>
      <point x="502" y="990" type="line" smooth="no"/>
      <point x="502" y="121" type="line" smooth="no"/>
    </contour>
  </outline>
</glyph>
<glyph name="daggerdbl" format="1">
  <advance width="950"/>
  <unicode hex="2021"/>
  <outline>
    <contour>
      <point x="505" y="121" type="line" smooth="no"/>
      <point x="375" y="121" type="line" smooth="no"/>
      <point x="375" y="518" type="line" smooth="no"/>
      <point x="77" y="518" type="line" smooth="no"/>
      <point x="77" y="626" type="line" smooth="no"/>
      <point x="375" y="626" type="line" smooth="no"/>
      <point x="375" y="990" type="line" smooth="no"/>
      <point x="80" y="990" type="line" smooth="no"/>
      <point x="80" y="1098" type="line" smooth="no"/>
      <point x="375" y="1098" type="line" smooth="no"/>
      <point x="375" y="1495" type="line" smooth="no"/>
      <point x="505" y="1495" type="line" smooth="no"/>
      <point x="505" y="1098" type="line" smooth="no"/>
      <point x="803" y="1098" type="line" smooth="no"/>
      <point x="803" y="990" type="line" smooth="no"/>
      <point x="505" y="990" type="line" smooth="no"/>
      <point x="505" y="626" type="line" smooth="no"/>
      <point x="800" y="626" type="line" smooth="no"/>
      <point x="800" y="518" type="line" smooth="no"/>
      <point x="505" y="518" type="line" smooth="no"/>
    </contour>
  </outline>
</glyph>
<glyph name="radical" format="1">
  <advance width="1216"/>
  <unicode hex="221a"/>
  <outline>
    <contour>
      <point x="1035" y="1718" type="curve" smooth="no"/>
      <point x="1148" y="1718" type="line" smooth="no"/>
      <point x="708" y="-166" type="line" smooth="no"/>
      <point x="569" y="-166" type="line" smooth="no"/>
      <point x="236" y="743" type="line" smooth="no"/>
      <point x="84" y="712" type="line" smooth="no"/>
      <point x="68" y="833" type="line" smooth="no"/>
      <point x="328" y="889" type="line" smooth="no"/>
      <point x="569" y="230" type="line" smooth="no"/>
      <point x="628" y="44" type="line" smooth="no"/>
      <point x="763" y="602"/>
      <point x="899" y="1160"/>
    </contour>
  </outline>
</glyph>
<glyph name="uniFB02" format="1">
  <advance width="1237"/>
  <unicode hex="fb02"/>
  <outline>
    <contour>
      <point x="1094" y="-12" type="curve" smooth="yes"/>
      <point x="822" y="-12"/>
      <point x="808" y="123"/>
      <point x="808" y="487" type="curve" smooth="yes"/>
      <point x="808" y="1376" type="line" smooth="no"/>
      <point x="707" y="1382"/>
      <point x="662" y="1383"/>
      <point x="617" y="1383" type="curve" smooth="yes"/>
      <point x="414" y="1383"/>
      <point x="349" y="1351"/>
      <point x="349" y="1098" type="curve" smooth="no"/>
      <point x="598" y="1098" type="line" smooth="no"/>
      <point x="598" y="980" type="line" smooth="no"/>
      <point x="349" y="980" type="line" smooth="no"/>
      <point x="349" y="0" type="line" smooth="no"/>
      <point x="181" y="0" type="line" smooth="no"/>
      <point x="181" y="980" type="line" smooth="no"/>
      <point x="20" y="980" type="line" smooth="no"/>
      <point x="20" y="1098" type="line" smooth="no"/>
      <point x="181" y="1098" type="line" smooth="no"/>
      <point x="181" y="1423"/>
      <point x="315" y="1512"/>
      <point x="550" y="1512" type="curve" smooth="yes"/>
      <point x="570" y="1512"/>
      <point x="590" y="1512"/>
      <point x="976" y="1490" type="curve" smooth="no"/>
      <point x="976" y="450" type="line" smooth="yes"/>
      <point x="976" y="211"/>
      <point x="977" y="128"/>
      <point x="1134" y="128" type="curve" smooth="yes"/>
      <point x="1159" y="128"/>
      <point x="1155" y="128"/>
      <point x="1207" y="132" type="curve" smooth="no"/>
      <point x="1218" y="1" type="line" smooth="no"/>
      <point x="1121" y="-10"/>
      <point x="1111" y="-12"/>
    </contour>
  </outline>
</glyph>
<glyph name="ffi" format="1">
  <advance width="1585"/>
  <unicode hex="fb03"/>
  <outline>
    <contour>
      <point x="349" y="980" type="line" smooth="no"/>
      <point x="349" y="0" type="line" smooth="no"/>
      <point x="181" y="0" type="line" smooth="no"/>
      <point x="181" y="980" type="line" smooth="no"/>
      <point x="20" y="980" type="line" smooth="no"/>
      <point x="20" y="1098" type="line" smooth="no"/>
      <point x="181" y="1098" type="line" smooth="no"/>
      <point x="181" y="1450"/>
      <point x="266" y="1536"/>
      <point x="539" y="1536" type="curve" smooth="yes"/>
      <point x="612" y="1536" type="line" smooth="no"/>
      <point x="632" y="1408" type="line" smooth="no"/>
      <point x="538" y="1408" type="line" smooth="yes"/>
      <point x="355" y="1408"/>
      <point x="349" y="1331"/>
      <point x="349" y="1098" type="curve" smooth="no"/>
      <point x="738" y="1098" type="line" smooth="no"/>
      <point x="738" y="1450"/>
      <point x="799" y="1536"/>
      <point x="1072" y="1536" type="curve" smooth="yes"/>
      <point x="1149" y="1536" type="line" smooth="no"/>
      <point x="1156" y="1408" type="line" smooth="no"/>
      <point x="1071" y="1408" type="line" smooth="yes"/>
      <point x="918" y="1408"/>
      <point x="906" y="1355"/>
      <point x="906" y="1201" type="curve" smooth="yes"/>
      <point x="906" y="1098" type="line" smooth="no"/>
      <point x="1453" y="1098" type="line" smooth="no"/>
      <point x="1453" y="0" type="line" smooth="no"/>
      <point x="1285" y="0" type="line" smooth="no"/>
      <point x="1285" y="980" type="line" smooth="no"/>
      <point x="906" y="980" type="line" smooth="no"/>
      <point x="906" y="0" type="line" smooth="no"/>
      <point x="738" y="0" type="line" smooth="no"/>
      <point x="738" y="980" type="line" smooth="no"/>
    </contour>
    <contour>
      <point x="1285" y="1496" type="line" smooth="no"/>
      <point x="1453" y="1496" type="line" smooth="no"/>
      <point x="1453" y="1298" type="line" smooth="no"/>
      <point x="1285" y="1298" type="line" smooth="no"/>
    </contour>
  </outline>
</glyph>
